<svg xmlns="http://www.w3.org/2000/svg" width="1920" height="1080" fill="none"><path fill="url(#a)" d="M0 0h1920v1080H0z"/><circle cx="93" cy="680" r="23" fill="#22285F"/><ellipse cx="1293" cy="821" fill="#22285F" rx="25" ry="20"/><ellipse cx="1515.51" cy="807.401" fill="#22285F" rx="13.5" ry="22.5" transform="rotate(-45.484 1515.51 807.401)"/><circle cx="1655" cy="678" r="25" fill="#22285F"/><ellipse cx="1713.5" cy="813.5" fill="#22285F" rx="33.5" ry="39.5"/><ellipse cx="617.941" cy="952.236" fill="#22285F" rx="13.5" ry="22.5" transform="rotate(30 617.941 952.236)"/><ellipse cx="437" cy="865.5" fill="#22285F" rx="25" ry="12.5"/><path fill="#22285F" d="m910 866 2.731 25.407 19.896-16.034-16.034 19.896L942 898l-25.407 2.731 16.034 19.896-19.896-16.034L910 930l-2.731-25.407-19.896 16.034 16.034-19.896L878 898l25.407-2.731-16.034-19.896 19.896 16.034L910 866Z"/><ellipse cx="536" cy="260" fill="#22285F" rx="25" ry="20"/><ellipse cx="722.5" cy="75" fill="#22285F" rx="17.5" ry="14"/><circle cx="218.5" cy="422.5" r="21.5" fill="#22285F"/><ellipse cx="616.5" cy="523" fill="#22285F" rx="21.5" ry="17"/><path fill="#22285F" d="m197.5 87 2.176 20.246 15.855-12.777-12.777 15.855L223 112.5l-20.246 2.176 12.777 15.855-15.855-12.777L197.5 138l-2.176-20.246-15.855 12.777 12.777-15.855L172 112.5l20.246-2.176-12.777-15.855 15.855 12.777L197.5 87Z"/><ellipse cx="113.5" cy="941" fill="#22285F" rx="20.5" ry="24"/><ellipse cx="798" cy="667.5" fill="#22285F" rx="14" ry="10.5"/><ellipse cx="1073.96" cy="996.818" fill="#22285F" rx="19.5" ry="13.5" transform="rotate(91.373 1073.96 996.818)"/><circle cx="1779.5" cy="280.5" r="17.5" fill="#22285F"/><path fill="#22285F" d="m1468.5 165 1.83 17.07 13.37-10.773-10.77 13.368L1490 186.5l-17.07 1.835 10.77 13.368-13.37-10.773-1.83 17.07-1.83-17.07-13.37 10.773 10.77-13.368L1447 186.5l17.07-1.835-10.77-13.368 13.37 10.773 1.83-17.07Z"/><ellipse cx="823" cy="394" fill="#22285F" rx="25" ry="20"/><ellipse cx="1106" cy="112" fill="#22285F" rx="25" ry="20"/><ellipse cx="1109.5" cy="415.5" fill="#22285F" rx="21.5" ry="14.5"/><ellipse cx="1018.61" cy="575.642" fill="#22285F" rx="24.163" ry="24.565" transform="rotate(48.865 1018.61 575.642)"/><ellipse cx="1779.5" cy="51.5" fill="#22285F" rx="22.5" ry="26.5" transform="rotate(-90 1779.5 51.5)"/><defs><linearGradient id="a" x1="1920" x2="1261.78" y1="1080" y2="-519.305" gradientUnits="userSpaceOnUse"><stop stop-color="#0E0F2F" stop-opacity=".97"/><stop offset=".93" stop-color="#0E0E1C"/></linearGradient></defs></svg>