<svg xmlns="http://www.w3.org/2000/svg" width="125" height="147" fill="none"><path fill="#C8CC03" d="M121.411 59.9c4.509-25.453 8.626-48.698-13.185-59.9H63v147c12.148-10.947 12.364-21.92 19.923-36.489 11.95-23.034 33.174-20.604 38.387-50.043l.101-.568ZM3.66 60.096C-.936 34.566-5.137 11.23 17.09 0H63v147c-12.348-10.947-12.568-21.92-20.251-36.489C30.6 87.477 9.027 89.907 3.728 60.468l-.068-.372Z"/><path fill="#CC7C03" d="M109.987 52.241C113.651 30.06 113.988 9.751 96.282 0H63v127c9.789-9.457 9.963-18.938 16.054-31.525 9.63-19.9 26.732-17.8 30.933-43.234ZM15.054 52.241C11.316 30.06 10.971 9.751 29.038 0H63v127c-9.989-9.457-10.166-18.938-16.381-31.525-9.827-19.9-27.278-17.8-31.565-43.234Z"/></svg>