<svg xmlns="http://www.w3.org/2000/svg" width="44" height="96" fill="none"><path fill="#000" d="M22 .5C10.3.5.8 10 .8 21.7v20.2c0 11.7 9.5 21.2 21.2 21.2s21.2-9.5 21.2-21.2V21.7C43.2 10 33.7.5 22 .5Zm15.2 41.4c0 8.4-6.8 15.2-15.2 15.2-8.4 0-15.2-6.8-15.2-15.2V21.7c0-8.4 6.8-15.2 15.2-15.2 8.4 0 15.2 6.8 15.2 15.2v20.2Z"/><path fill="#000" d="M22 13.1c-1.7 0-3 1.3-3 3v8.1c0 1.7 1.3 3 3 3s3-1.3 3-3v-8.1c0-1.6-1.3-3-3-3ZM28.2 67.6 22 73.9l-6.2-6.2c-1.2-1.2-3.1-1.2-4.3 0-1.2 1.2-1.2 3.1 0 4.3l8.4 8.4c.6.6 1.4.9 2.1.9.7 0 1.5-.3 2.1-.9l8.4-8.4c1.2-1.2 1.2-3.1 0-4.3-1.2-1.2-3.1-1.2-4.3-.1Z"/><path fill="#000" d="M28.2 82 22 88.2 15.8 82c-1.2-1.2-3.1-1.2-4.3 0-1.2 1.2-1.2 3.1 0 4.3l8.4 8.4c.6.6 1.4.9 2.1.9.7 0 1.5-.3 2.1-.9l8.4-8.4c1.2-1.2 1.2-3.1 0-4.3-1.2-1.2-3.1-1.2-4.3 0Z"/></svg>