<svg xmlns="http://www.w3.org/2000/svg" width="1920" height="1080" fill="none"><path fill="#555" d="M0 785h1920v211H0z"/><path fill="#646464" d="M0 804h1920v192H0z"/><path fill="#767676" d="M0 996h1920v84H0z"/><path fill="#B06363" d="M0 0h1920v785H0z"/><rect width="398" height="261.575" x="276" y="402" fill="#754522" rx="26"/><rect width="352.901" height="216.476" x="298.55" y="424.55" fill="#A48250" rx="26"/><rect width="10.147" height="73.286" x="381.911" y="479.065" fill="#814A2B" rx="5.074" transform="rotate(43.735 381.911 479.065)"/><rect width="41.965" height="25.932" x="386.006" y="454.029" fill="#2E2E2E" rx="7" transform="rotate(43.735 386.006 454.029)"/><rect width="10.147" height="137.552" x="510.163" y="445.972" fill="#814A2B" rx="5.074" transform="rotate(43.96 510.163 445.972)"/><path fill="#940000" d="m514.307 455.795 18.039 17.395a2 2 0 0 1 .051 2.828l-13.659 14.164a2 2 0 0 1-2.828.052l-18.038-17.396 16.435-17.043Z"/><path fill="#797979" d="m528.104 469.1 4.242 4.09a2 2 0 0 1 .051 2.828l-13.659 14.164a2 2 0 0 1-2.828.052l-4.241-4.091 16.435-17.043Z"/><rect width="2.255" height="30.442" fill="#797979" rx="1.127" transform="matrix(1 0 0 -1 503.751 611.711)"/><rect width="2.255" height="30.442" fill="#797979" rx="1.127" transform="matrix(1 0 0 -1 487.966 611.711)"/><rect width="2.255" height="30.442" fill="#797979" rx="1.127" transform="matrix(1 0 0 -1 472.181 611.711)"/><rect width="9.02" height="37.207" fill="#7B3B0C" rx="4.51" transform="matrix(1 0 0 -1 500.368 583.524)"/><rect width="9.02" height="37.207" fill="#7B3B0C" rx="4.51" transform="matrix(1 0 0 -1 484.584 583.524)"/><path fill="#797979" d="M598.181 478.278a3 3 0 0 0-4.422.043l-52.72 58.641a2.999 2.999 0 0 0 .04 4.055l8.009 8.562a3 3 0 0 0 4.24.142l57.372-53.668a3 3 0 0 0 .142-4.241l-12.661-13.534Z"/><rect width="9.02" height="37.207" fill="#7B3B0C" rx="4.51" transform="matrix(1 0 0 -1 468.799 583.524)"/><rect width="24.805" height="33.824" fill="#0C1993" rx="4" transform="scale(-1 1) rotate(43.09 -885.354 -538.794)"/><rect width="13.53" height="22.55" fill="#A48250" rx="3" transform="scale(-1 1) rotate(43.09 -895.312 -534.473)"/><rect width="600" height="41" x="956" y="636" fill="#754522" rx="10"/><path fill="#754522" d="M1457 677h32v147a8 8 0 0 1-8 8h-16a8 8 0 0 1-8-8V677ZM1023 676h32v147a8 8 0 0 1-8 8h-16a8 8 0 0 1-8-8V676ZM1055 742h402v26h-402z"/><path fill="#D9D9D9" d="M1458 564c0-3.314 2.69-6 6-6h49c3.31 0 6 2.686 6 6v72h-61v-72ZM1365 564c0-3.314 2.69-6 6-6h49c3.31 0 6 2.686 6 6v72h-61v-72Z"/><path fill="#69289B" d="M1365 564c0-3.314 2.69-6 6-6h49c3.31 0 6 2.686 6 6v33h-61v-33Z"/><path fill="#1B760C" d="M1458 564c0-3.314 2.69-6 6-6h49c3.31 0 6 2.686 6 6v33h-61v-33Z"/><rect width="447" height="15" x="1690.04" y="371.008" fill="#754522" rx="7.5" transform="rotate(90.005 1690.04 371.008)"/><path fill="#754522" d="M1616.01 764.001h59v14h-59zM1616.01 721.001h59v14h-59zM1616.01 678.001h59v14h-59zM1616.02 635.001h59v14h-59zM1616.02 592.001h59v14h-59zM1616.02 549.001h59v14h-59zM1616.03 506.001h59v14h-59zM1616.03 463.001h59v14h-59zM1616.04 420.001h59v14h-59z"/><rect width="447" height="15" x="1616.04" y="371.001" fill="#754522" rx="7.5" transform="rotate(90.005 1616.04 371.001)"/></svg>